<svg width="651" height="457" viewBox="0 0 651 457" fill="none" xmlns="http://www.w3.org/2000/svg">
<g clip-path="url(#clip0_3_55)">
<path d="M63.9667 50.9961H91.6279C85.8865 75.2713 50.7123 85.2997 23.8728 85.2997V131.127H0V0H13.1263H96.0674L106.216 28.3976C106.216 28.3976 77.8186 4.22921 24.7479 4.22921H23.8728V80.8676C39.603 80.8676 60.1035 71.4586 63.9667 50.9961Z" fill="#FFF4B6"/>
<path d="M236.284 103.455V132.323C203.052 132.323 155.851 91.3338 144.379 50.3447L170.845 50.8039C188.165 107.834 231.332 103.455 214.492 47.5893C203.052 9.63319 179.66 4.22921 155.851 4.22921H144.336V131.116H120.463V0H155.861C203.618 0 226.263 8.08462 236.241 38.725C251.619 85.9725 201.035 115.865 164.121 79.885C185.369 111.102 224.705 109.938 236.295 103.455H236.284Z" fill="#FFF4B6"/>
<path d="M348.263 126.214C315.095 140.781 272.365 127.325 257.809 94.1319C243.253 60.939 262.376 20.58 295.544 6.01272C328.712 -8.55455 369.916 5.43601 384.472 38.6289C399.029 71.8324 381.441 111.647 348.263 126.225V126.214ZM359.415 52.0321C345.915 21.2635 318.99 0.384458 296.804 10.5303C279.035 18.6576 268.715 51.5087 282.215 82.288C295.715 113.067 322.48 132.003 345.702 121.996C363.652 114.263 372.925 82.8113 359.426 52.0321H359.415Z" fill="#FFF4B6"/>
<path d="M533.995 0V131.116H510.122V14.642L474.798 105.218L484.894 131.105H458.929L459.015 130.881L413.03 14.044V131.105H407.502V0H433.744L471.895 97.8271L510.058 0H515.831H533.995Z" fill="#FFF4B6"/>
<path d="M115.821 265.789V294.656C82.5889 294.656 35.3876 253.667 23.9155 212.678L50.3815 213.137C67.7018 270.167 110.869 265.789 94.0291 209.923C82.5889 171.967 59.1964 166.563 35.3876 166.563H23.8728V293.449H0V162.333H35.3983C83.1652 162.333 105.811 170.418 115.789 201.058C131.167 248.306 80.5826 278.199 43.6689 242.218C64.9164 273.436 104.253 272.271 115.842 265.789H115.821Z" fill="#FFF4B6"/>
<path d="M257.339 293.439H230.116L217.95 262.254C218.046 262.574 218.174 262.894 218.27 263.204H192.604C192.039 262.093 191.409 260.961 190.747 259.808C182.648 246.02 168.614 241.417 156.235 251.211C155.082 269.697 158.081 286.23 163.524 293.439H127.752L178.891 162.323H205.677L257.361 293.439H257.339ZM215.314 255.472L181.826 169.595L163.716 216.031C160.162 225.141 157.953 234.924 156.843 244.429C180.375 226.231 207.545 239.612 215.325 255.472H215.314Z" fill="#FFF4B6"/>
<path d="M294.296 162.333V293.449H270.423V162.333H294.296ZM378.325 162.333V293.449H354.452V247.366C328.99 245.657 299.514 235.362 294.296 213.319H321.957C325.212 230.609 340.344 240.007 354.442 242.507V162.333H378.315H378.325Z" fill="#FFF4B6"/>
<path d="M528.765 162.333V293.449H504.893V176.975L469.569 267.551L479.664 293.439H453.7L453.785 293.214L407.801 176.377V293.439H402.273V162.333H428.515L466.666 260.16L504.828 162.333H510.602H528.765Z" fill="#FFF4B6"/>
<path d="M143.013 353.064C143.013 353.064 122.341 335.496 83.336 330.316V455.782H59.4632V330.348C20.5966 335.56 0.0107422 353.064 0.0107422 353.064L10.1596 324.666H67.5204H75.5029H75.5136H132.864L143.013 353.064Z" fill="#FFF4B6"/>
<path d="M241.631 450.88C208.463 465.448 165.733 451.991 151.177 418.798C136.62 385.605 155.744 345.246 188.912 330.679C222.08 316.112 263.284 330.102 277.84 363.295C292.396 396.499 274.809 436.313 241.631 450.891V450.88ZM252.783 376.698C239.283 345.93 212.358 325.051 190.171 335.197C172.403 343.324 162.083 376.175 175.583 406.954C189.083 437.734 215.848 456.669 239.069 446.662C257.019 438.93 266.293 407.478 252.793 376.698H252.783Z" fill="#FFF4B6"/>
<path d="M384.131 422.921H410.597C427.917 479.94 472.995 444.718 454.202 380.362C440.894 334.769 406.286 328.896 395.603 328.896H384.142V455.782H360.269V324.666H395.614C451.31 324.666 476.068 352.146 482.333 384.783C493.645 443.746 414.684 492.201 384.142 422.921H384.131Z" fill="#FFF4B6"/>
<path d="M610.49 418.905L597.31 455.782H514.369H501.243V324.666H595.4L605.549 353.064C605.549 353.064 577.514 329.216 525.126 328.906V405.534C540.857 405.534 561.357 396.125 565.22 375.662H592.881C587.14 399.938 551.955 409.966 525.126 409.966V451.564H536.086C571.655 451.564 610.49 418.905 610.479 418.916L610.49 418.905Z" fill="#FFF4B6"/>
<path d="M627.127 455.782V324.666H651V455.782H627.127Z" fill="#FFF4B6"/>
</g>
<defs>
<clipPath id="clip0_3_55">
<rect width="651" height="457" fill="white"/>
</clipPath>
</defs>
</svg>
